<svg width="79" height="30" viewBox="0 0 79 30" fill="none" xmlns="http://www.w3.org/2000/svg">
<g clip-path="url(#clip0)">
<path d="M13.5847 17.3257C13.7661 17.325 13.9417 17.3319 14.111 17.3464L14.1283 17.3351C14.3459 17.3639 14.7787 17.4203 15.1788 17.5481C15.5814 17.6734 15.9463 17.87 16.2306 18.0717C16.5074 18.2721 16.7087 18.4801 16.8345 18.7331C16.9603 18.9862 17.0232 19.2868 17.061 19.7791C17.0861 20.2726 17.0861 20.9566 16.9729 22.2343C16.8597 23.5083 16.6332 25.376 16.4571 26.5723C16.2809 27.7749 16.1551 28.301 15.9916 28.6893C15.828 29.0902 15.6141 29.3532 15.3751 29.5411C15.136 29.729 14.8592 29.8418 14.595 29.9044C14.3308 29.967 14.0918 29.967 13.8653 29.967C13.6389 29.967 13.425 29.967 13.1356 29.9044C12.8462 29.8418 12.4688 29.729 12.192 29.5036C12.0703 29.4087 11.9664 29.2961 11.8756 29.1658C11.3907 28.6717 11.1771 27.7424 10.856 25.5175C10.324 21.8343 10.2081 19.5546 10.5159 18.8323C10.9246 17.8752 12.0335 17.332 13.5847 17.3257ZM13.5984 0.967041C17.2367 0.967041 20.5261 2.36797 23.0305 4.98711C24.9369 6.96358 26.0084 9.05565 26.5566 11.8115C26.7435 12.7289 26.7435 15.2299 26.5691 16.2617C25.9959 19.5235 24.1768 22.4944 21.5229 24.4908C20.5759 25.2043 18.2584 26.4498 17.8846 26.4498C17.7475 26.4498 17.7351 26.3081 17.7974 25.7351C17.9095 24.8152 18.0217 24.6238 18.545 24.405C19.3798 24.0569 20.8002 23.0476 21.6724 22.1749C23.18 20.6833 24.2889 18.7317 24.7998 16.6806C25.1237 15.4002 25.0864 12.5536 24.725 11.236C23.5912 7.04686 20.1647 3.79004 15.9658 2.91989C14.7447 2.67128 12.5269 2.67128 11.2934 2.91989C7.04458 3.79004 3.53092 7.20846 2.45937 11.5095C2.1728 12.6779 2.1728 15.5246 2.45937 16.693C3.16958 19.5396 5.01363 22.1501 7.43083 23.7039C7.90431 24.0147 8.47746 24.3379 8.71419 24.4373C9.2375 24.6611 9.34964 24.8475 9.44932 25.7674C9.51162 26.3268 9.49916 26.4884 9.3621 26.4884C9.27488 26.4884 8.63943 26.2149 7.9666 25.8917L7.90431 25.8457C4.05423 23.9562 1.58719 20.7591 0.690082 16.5053C0.465806 15.4077 0.428426 12.7886 0.640243 11.7817C1.20093 9.07803 2.27248 6.96358 4.05423 5.09401C6.62095 2.39408 9.92279 0.967041 13.5984 0.967041ZM42.979 18.2859C44.8699 18.2859 46.0299 19.5368 46.0299 21.5963C46.0299 23.6617 44.8757 24.9067 42.979 24.9067C41.0765 24.9067 39.928 23.6617 39.928 21.5963C39.928 19.5426 41.0939 18.2859 42.979 18.2859ZM71.1452 18.2859C72.6533 18.2859 73.5987 18.955 73.7031 20.1128H72.3517C72.2473 19.6648 71.8239 19.3797 71.151 19.3797C70.4956 19.3797 70.0026 19.6939 70.0026 20.1535C70.0026 20.5142 70.3042 20.7353 70.9422 20.8807L72.0617 21.1367C73.2739 21.4102 73.8366 21.9338 73.8366 22.8705C73.8366 24.0922 72.7171 24.9067 71.1336 24.9067C69.5501 24.9067 68.5525 24.2202 68.4423 23.0625H69.8633C70.0026 23.5337 70.4492 23.813 71.1684 23.813C71.8935 23.813 72.3981 23.493 72.3981 23.0217C72.3981 22.661 72.1255 22.4341 71.5222 22.3003L70.397 22.0385C69.1789 21.7592 68.6047 21.1949 68.6047 20.2349C68.6047 19.083 69.6487 18.2859 71.1452 18.2859ZM57.7697 18.2859C59.3996 18.2859 60.3857 19.2168 60.5365 20.5549H59.1676C59.0342 19.9382 58.5586 19.4961 57.7697 19.4961C56.7837 19.4961 56.1978 20.2582 56.1978 21.5789C56.1978 22.917 56.7895 23.6966 57.7697 23.6966C58.518 23.6966 59.0168 23.3417 59.1676 22.6785H60.5365C60.3799 24.0108 59.3822 24.9067 57.7755 24.9067C55.8672 24.9067 54.742 23.6733 54.742 21.5789C54.742 19.5135 55.8614 18.2859 57.7697 18.2859ZM64.4749 18.2859C66.1048 18.2859 67.0212 19.083 67.0212 20.4327V24.7787H65.6349V23.906H65.5363C65.1825 24.5228 64.4865 24.8835 63.657 24.8835C62.4332 24.8835 61.5573 24.1388 61.5573 22.9752C61.5573 21.8232 62.4216 21.16 63.9644 21.0669L65.6001 20.968V20.4327C65.6001 19.8102 65.1825 19.4612 64.4053 19.4612C63.744 19.4612 63.2916 19.6939 63.1582 20.1244H61.8009C61.9169 19.0015 62.9668 18.2859 64.4749 18.2859ZM53.2397 15.9529V24.7787H51.8476V23.7722H51.749C51.3894 24.4704 50.6586 24.8835 49.7769 24.8835C48.1702 24.8835 47.1668 23.6152 47.1668 21.5905C47.1668 19.5775 48.176 18.3092 49.7769 18.3092C50.6469 18.3092 51.3662 18.7281 51.7026 19.4262H51.8012V15.9529H53.2397ZM77.1427 16.8547V18.4547H78.5V19.6066H77.1427V22.7308C77.1427 23.3592 77.4095 23.6384 78.0128 23.6384C78.2158 23.6384 78.326 23.6268 78.5 23.6093V24.738C78.2912 24.7787 78.0244 24.8078 77.746 24.8078C76.2901 24.8078 75.7101 24.3133 75.7101 23.0799V19.6066H74.7066V18.4547H75.7101V16.8547H77.1427ZM36.1056 16.3835C37.7761 16.3835 38.9187 17.5296 38.9187 19.2226C38.9187 20.8865 37.7355 22.0269 36.0418 22.0269H34.2263V24.7787H32.7298V16.3835H36.1056ZM65.6001 21.9396L64.1675 22.0327C63.3612 22.085 62.9842 22.3759 62.9842 22.8937C62.9842 23.429 63.4424 23.749 64.0805 23.749C64.9505 23.749 65.6001 23.1846 65.6001 22.4458V21.9396ZM42.979 19.4961C41.9755 19.4961 41.4013 20.2698 41.4013 21.5963C41.4013 22.9286 41.9755 23.6966 42.979 23.6966C43.9824 23.6966 44.5508 22.9286 44.5508 21.5963C44.5508 20.2698 43.9766 19.4961 42.979 19.4961ZM50.2235 19.5368C49.2433 19.5368 48.64 20.3164 48.64 21.5963C48.64 22.8821 49.2375 23.6559 50.2235 23.6559C51.2154 23.6559 51.8186 22.8763 51.8186 21.5963C51.8186 20.328 51.2096 19.5368 50.2235 19.5368ZM15.5297 5.49801C19.8657 6.46138 22.9433 10.7935 22.3452 15.0907C22.1085 16.8223 21.5104 18.2444 20.4513 19.5658C19.928 20.2333 18.6571 21.3533 18.4328 21.3533C18.3989 21.3533 18.3649 21.004 18.359 20.5538L18.3581 19.4762L19.006 18.7055C21.4481 15.7868 21.2737 11.7096 18.6073 9.03452C17.5731 7.99283 16.377 7.38125 14.832 7.09907C13.8352 6.9151 13.6234 6.9151 12.5767 7.08664C10.9881 7.3452 9.75708 7.95927 8.66435 9.03825C5.9855 11.686 5.81106 15.7844 8.25318 18.7055L8.89611 19.4762V20.421C8.89611 20.9431 8.85499 21.3657 8.8039 21.3657C8.75406 21.3657 8.39273 21.1171 8.00648 20.8063L7.95414 20.7889C6.65833 19.7572 5.51202 17.9274 5.03855 16.1324C4.75198 15.0485 4.75198 12.9875 5.05101 11.906C5.83598 8.98728 7.99152 6.72491 10.9819 5.66209C12.0036 5.3016 14.2713 5.2208 15.5297 5.49801ZM35.7112 17.6401H34.2263V20.7818H35.7054C36.7726 20.7818 37.3991 20.2233 37.3991 19.2226C37.3991 18.1928 36.79 17.6401 35.7112 17.6401ZM14.9192 10.2552C16.0815 10.7171 16.8963 11.8406 16.8963 13.1542C16.8963 14.8737 15.4999 16.2677 13.7774 16.2677C12.6489 16.2677 11.6603 15.6693 11.1128 14.773L11.0593 14.7007C10.7356 14.2199 10.5648 13.6325 10.5582 12.9626C10.5582 11.8252 11.1937 10.8332 12.2902 10.2527C12.9879 9.88726 14.2214 9.88726 14.9192 10.2552ZM51.9984 6.39409C53.6051 6.39409 54.6144 7.63913 54.6144 9.68122C54.6144 11.7117 53.6167 12.9683 52.0158 12.9683C51.1052 12.9683 50.4033 12.5727 50.0785 11.8979H49.9799V14.9814H48.5414V6.49882H49.9277V7.55186H50.0263C50.3917 6.83044 51.1284 6.39409 51.9984 6.39409ZM44.4812 6.39409C46.0879 6.39409 47.0972 7.63913 47.0972 9.68122C47.0972 11.7117 46.0995 12.9683 44.4986 12.9683C43.588 12.9683 42.8862 12.5727 42.5613 11.8979H42.4627V14.9814H41.0243V6.49882H42.4105V7.55186H42.5091C42.8745 6.83044 43.6112 6.39409 44.4812 6.39409ZM62.0387 6.37082C63.8484 6.37082 64.9331 7.57513 64.9331 9.58232V10.0477H60.5017V10.1234C60.5365 11.1822 61.1455 11.8455 62.0909 11.8455C62.8044 11.8455 63.2974 11.5837 63.5062 11.1124H64.8693C64.6083 12.2702 63.5468 12.9916 62.0503 12.9916C60.1826 12.9916 59.0574 11.7524 59.0574 9.70449C59.0574 7.65658 60.2 6.37082 62.0387 6.37082ZM57.5551 4.03783V12.8636H56.1166V4.03783H57.5551ZM36.761 4.46836L39.7366 12.8636H38.1299L37.4223 10.7168H34.3423L33.6231 12.8636H32.1092L35.0789 4.46836H36.761ZM44.0346 7.62167C43.0544 7.62167 42.4395 8.41291 42.4337 9.68122C42.4395 10.9553 43.0486 11.7408 44.0288 11.7408C45.0265 11.7408 45.6181 10.967 45.6181 9.68122C45.6181 8.39546 45.0207 7.62167 44.0346 7.62167ZM51.5518 7.62167C50.5715 7.62167 49.9567 8.41291 49.9509 9.68122C49.9567 10.9553 50.5657 11.7408 51.546 11.7408C52.5436 11.7408 53.1353 10.967 53.1353 9.68122C53.1353 8.39546 52.5378 7.62167 51.5518 7.62167ZM35.9374 6.06829H35.8388L34.6903 9.52995H37.0742L35.9374 6.06829ZM62.0329 7.51695C61.1745 7.51695 60.5713 8.13365 60.5075 9.06452H63.4946C63.4656 8.12202 62.8972 7.51695 62.0329 7.51695Z" fill="#5A668A"/>
</g>
<defs>
<clipPath id="clip0">
<rect width="78" height="29" fill="white" transform="translate(0.5 0.967041)"/>
</clipPath>
</defs>
</svg>
