<svg width="97" height="30" viewBox="0 0 97 30" fill="none" xmlns="http://www.w3.org/2000/svg">
<path fill-rule="evenodd" clip-rule="evenodd" d="M14.5831 0.756592C6.64052 0.756592 0.201477 7.2286 0.201477 15.2121C0.201477 23.1959 6.64052 29.6673 14.5831 29.6673C22.5265 29.6673 28.9649 23.1959 28.9649 15.2121C28.9649 7.22912 22.5265 0.757282 14.5829 0.757282L14.5831 0.756592ZM21.1784 21.6055C20.9208 22.0302 20.3678 22.1648 19.9454 21.9042C16.5687 19.831 12.3179 19.3615 7.31183 20.5111C6.82943 20.6216 6.34857 20.3178 6.23866 19.8327C6.12823 19.3477 6.42928 18.8643 6.91289 18.7539C12.3912 17.4958 17.0904 18.0375 20.8813 20.3661C21.3038 20.6268 21.4377 21.1809 21.1784 21.6055ZM21.3965 18.0409C21.9238 18.3672 22.6141 18.1997 22.9387 17.6695V17.6696C23.2633 17.1404 23.0967 16.4465 22.5695 16.1202C18.1301 13.3782 11.637 12.6065 6.414 14.1995C5.82203 14.3807 5.48766 15.0091 5.66626 15.6051C5.84624 16.2001 6.47256 16.536 7.06556 16.356C11.638 14.9609 17.5308 15.6526 21.3965 18.0409ZM23.0898 13.5708C18.4547 10.8035 10.8073 10.5491 6.38188 11.8992C5.67124 12.1158 4.91973 11.7126 4.70437 10.9983C4.48902 10.2836 4.88985 9.52875 5.601 9.31159C10.6811 7.76147 19.1262 8.06097 24.4627 11.2453C25.1033 11.6266 25.3128 12.4564 24.9332 13.098C24.5554 13.7405 23.7277 13.9523 23.0905 13.5708H23.0898ZM36.4045 12.2104C36.4045 13.0882 36.8458 13.5059 39.3291 14.1011L39.3343 14.1033C42.3585 14.8428 43.5933 15.9907 43.5882 18.0634C43.5882 20.5197 41.7214 22.1061 38.8328 22.1061C36.7892 22.1061 34.8966 21.3777 33.3579 19.9967C33.2926 19.938 33.2858 19.8379 33.3424 19.7689L34.7026 18.1428C34.73 18.11 34.7696 18.0893 34.8142 18.0858C34.8554 18.0841 34.9001 18.0962 34.9327 18.1255C36.2551 19.2752 37.4383 19.7671 38.8878 19.7671C40.1929 19.7671 41.0035 19.1992 41.0035 18.2861C41.0035 17.4623 40.6017 17.0014 38.2266 16.4513C35.4342 15.7731 33.8181 14.8944 33.8181 12.413C33.8181 10.0991 35.6918 8.48181 38.3726 8.48181C40.1964 8.48181 41.7557 9.02504 43.1416 10.1424C43.2086 10.1964 43.2224 10.294 43.1726 10.3647L41.9601 12.0826C41.9343 12.1187 41.8966 12.1427 41.8519 12.1493C41.809 12.1562 41.7643 12.1457 41.73 12.1192C40.5656 11.2468 39.4562 10.823 38.3365 10.823C37.1807 10.823 36.4045 11.3811 36.4045 12.2104ZM50.1244 11.6395C48.8724 11.6395 47.8455 12.1353 46.9971 13.1512V12.0077C46.9971 11.9174 46.925 11.8439 46.8357 11.8439H44.6117C44.5224 11.8439 44.4503 11.9174 44.4503 12.0077V24.7127C44.4503 24.8024 44.5224 24.8767 44.6117 24.8767H46.8357C46.925 24.8767 46.9971 24.8024 46.9971 24.7127V20.7027C47.8455 21.6573 48.8724 22.1251 50.1244 22.1251C52.4514 22.1251 54.8076 20.3247 54.8076 16.8828C54.8111 13.4403 52.4548 11.6394 50.1261 11.6394L50.1244 11.6395ZM49.6092 19.8586C51.1479 19.8586 52.2213 18.6347 52.2213 16.8828V16.8827C52.2213 15.1582 51.1222 13.9071 49.6092 13.9072C48.0893 13.9072 46.9421 15.186 46.9421 16.8828C46.9421 18.5795 48.0893 19.8586 49.6092 19.8586ZM60.8441 11.6395C57.8473 11.6395 55.4997 13.9588 55.4997 16.9203C55.4997 19.85 57.8319 22.1441 60.808 22.1441C63.8151 22.1441 66.1696 19.8327 66.1696 16.8828C66.1696 13.943 63.8306 11.6399 60.8441 11.6399V11.6395ZM58.0483 16.882C58.0483 18.5881 59.2504 19.8759 60.8441 19.8759C62.4533 19.8759 63.6211 18.633 63.6211 16.9194C63.6211 15.2115 62.4121 13.9243 60.808 13.9243C59.2092 13.9243 58.0483 15.168 58.0483 16.882ZM72.5685 11.8439H70.1212V9.32954C70.1212 9.23944 70.0491 9.1659 69.9598 9.1659H67.7358C67.6465 9.1659 67.5727 9.23944 67.5727 9.32954V11.8439H66.5045C66.4152 11.8439 66.3431 11.9174 66.3431 12.0077V13.9285C66.3431 14.0186 66.4152 14.0923 66.5045 14.0923H67.5727V19.0628C67.5727 21.0704 68.567 22.0889 70.53 22.0889C71.3268 22.0889 71.988 21.9231 72.6114 21.5675C72.6629 21.5399 72.6938 21.4847 72.6938 21.426V19.5962C72.6938 19.541 72.6646 19.4875 72.6166 19.4581C72.5685 19.4271 72.5084 19.4253 72.4586 19.4512C72.0309 19.667 71.6171 19.7671 71.1534 19.7671C70.4407 19.7671 70.1212 19.4409 70.1212 18.7124V14.0931H72.5685C72.6578 14.0931 72.7299 14.0196 72.7299 13.9293V12.0088C72.7333 11.9185 72.6612 11.8449 72.5702 11.8449L72.5685 11.8439ZM81.0934 11.5449V11.8538V11.8543H84.8922C84.9592 11.8543 85.0193 11.8962 85.0433 11.9596L87.64 18.7711L90.0116 11.9641C90.034 11.8986 90.0958 11.8543 90.1662 11.8543H92.4812C92.5344 11.8543 92.5842 11.881 92.6134 11.9254C92.6443 11.9701 92.6512 12.0271 92.6306 12.0775L88.7734 22.0958C87.9748 24.1637 87.0664 24.9336 85.4246 24.9336C84.547 24.9336 83.8377 24.7506 83.0512 24.3225C82.9756 24.2811 82.9447 24.1896 82.9808 24.1102L83.7347 22.4479C83.7519 22.4065 83.7879 22.3754 83.8309 22.3599C83.8721 22.3478 83.9202 22.3512 83.9597 22.3719C84.3804 22.605 84.7943 22.7224 85.1859 22.7224C85.6702 22.7224 86.0257 22.5618 86.3863 21.7574L83.2058 14.0928H81.1295V21.7574C81.1295 21.8489 81.0574 21.9214 80.9663 21.9214H78.7441C78.6548 21.9214 78.5809 21.8489 78.5809 21.7574V14.0923H77.5127C77.4234 14.0923 77.3496 14.0186 77.3496 13.9285V11.9979C77.3496 11.9078 77.4234 11.8342 77.5127 11.8342H78.5809V11.3613C78.5809 9.16331 79.668 8.0009 81.7202 8.0009C82.5652 8.0009 83.1285 8.13606 83.5681 8.26776C83.6385 8.289 83.6832 8.35269 83.6832 8.42468V10.3079C83.6832 10.3604 83.6591 10.41 83.6162 10.4409C83.575 10.4718 83.5218 10.4799 83.4702 10.4637C83.0529 10.3238 82.6803 10.2313 82.2166 10.2313C81.4403 10.2313 81.0934 10.6364 81.0934 11.5449ZM76.1509 11.8439H73.9269C73.8376 11.8439 73.7638 11.9174 73.7638 12.0077V21.7574C73.7638 21.8489 73.8376 21.9214 73.9269 21.9214H76.1509C76.2402 21.9214 76.314 21.8489 76.314 21.7574V12.0084C76.314 11.9181 76.2419 11.8446 76.1509 11.8446V11.8439ZM73.4563 9.0064C73.4563 8.12104 74.1708 7.40432 75.0518 7.40432C75.9311 7.40432 76.6455 8.12121 76.6455 9.0064C76.6455 9.89228 75.9328 10.6099 75.0518 10.6099C74.1708 10.6099 73.4563 9.89228 73.4563 9.0064ZM94.53 14.9788C93.6507 14.9788 92.9655 14.2685 92.9655 13.4059C92.9655 12.5434 93.6593 11.8249 94.5386 11.8249C95.4178 11.8249 96.1031 12.5351 96.1031 13.397C96.1031 14.2595 95.4093 14.9788 94.53 14.9788ZM93.1303 13.4059C93.1303 12.6217 93.7366 11.9813 94.5386 11.9813C95.3354 11.9813 95.9382 12.6131 95.9382 13.397C95.9382 14.1817 95.332 14.8216 94.53 14.8216C93.7331 14.8216 93.1303 14.1898 93.1303 13.4059ZM94.8855 13.5587L95.3285 14.1815H94.9542L94.5557 13.6102H94.214V14.1815H93.9014V12.5306H94.633C95.016 12.5306 95.2667 12.7269 95.2667 13.0573C95.2684 13.3279 95.1122 13.4933 94.8872 13.5587H94.8855ZM94.214 12.8139H94.621C94.8236 12.8139 94.9456 12.9048 94.9456 13.0747C94.9456 13.2361 94.8236 13.336 94.621 13.336H94.214V12.8139Z" fill="#5A668A"/>
</svg>
