<svg width="135" height="57" viewBox="0 0 135 57" fill="none" xmlns="http://www.w3.org/2000/svg">
<g clip-path="url(#clip0)">
<path fill-rule="evenodd" clip-rule="evenodd" d="M28.0828 0.936157C43.5467 0.936157 56.0828 13.4722 56.0828 28.9362C56.0828 44.4001 43.5467 56.9362 28.0828 56.9362C12.6188 56.9362 0.0827637 44.4001 0.0827637 28.9362C0.0827637 13.4722 12.6188 0.936157 28.0828 0.936157ZM23.2826 14.7633C21.7482 14.7633 20.5247 15.8114 20.304 17.3161L17.9588 33.5969C17.9478 33.6718 17.9187 33.8706 17.6396 33.8828C17.3698 33.8942 17.317 33.7115 17.298 33.6332L16.5407 30.2935C16.5396 30.2884 16.5384 30.2833 16.5372 30.2782C16.0451 28.2222 14.1997 26.73 12.1491 26.73C11.4033 26.73 10.7988 27.3286 10.7988 28.0671C10.7988 28.8055 11.4033 29.4041 12.1491 29.4041C12.9471 29.4041 13.702 30.0416 13.9077 30.8881L14.6648 34.2272C14.666 34.2323 14.6671 34.2374 14.6684 34.2425C15.0096 35.6685 16.2803 36.619 17.759 36.5544C19.2374 36.4896 20.4186 35.4315 20.6318 33.9779L22.977 17.6972C22.9894 17.6129 23.0151 17.4374 23.2799 17.4374L23.369 17.4452C23.5518 17.48 23.5726 17.6236 23.5832 17.6966L26.8761 40.5086C27.0991 42.0462 28.3393 43.109 29.901 43.109L29.9524 43.1087C31.5381 43.0851 32.7702 41.9788 32.9485 40.4175L33.408 36.3726C33.4914 35.6388 32.9582 34.977 32.2171 34.8945C31.476 34.8117 30.8076 35.3399 30.7243 36.0737L30.265 40.1177C30.2552 40.2032 30.2293 40.4301 29.9118 40.4348C29.5971 40.4412 29.5616 40.2135 29.5493 40.1293L26.2565 17.3174C26.0385 15.8148 24.8156 14.7645 23.2826 14.7633ZM34.4843 23.9217C33.0855 23.9581 31.9986 24.9451 31.8413 26.3219L31.2695 31.3262C31.1856 32.06 31.7184 32.7221 32.4594 32.8051C33.2007 32.8882 33.8692 32.3606 33.953 31.6269L34.5248 26.6226C34.526 26.6124 34.5274 26.6043 34.5287 26.5979C34.5447 26.5944 34.566 26.5938 34.5821 26.5965C34.5836 26.6021 34.5852 26.609 34.5866 26.6174L35.6463 33.0183C35.8751 34.3775 37.006 35.3645 38.3965 35.4186C38.4364 35.4201 38.476 35.4209 38.5156 35.4209C39.8553 35.4209 41.0021 34.5382 41.3282 33.2393L41.3321 33.2234L41.8089 31.2201C42.0723 30.1843 43.0201 29.4041 44.0164 29.4041C44.7622 29.4041 45.3667 28.8055 45.3667 28.0671C45.3667 27.3286 44.7622 26.73 44.0164 26.73C41.778 26.73 39.7466 28.3499 39.1862 30.5819L39.1823 30.5978L38.7054 32.6016C38.6894 32.6646 38.6607 32.7523 38.5024 32.7465C38.3373 32.7401 38.3209 32.643 38.3107 32.5822L37.251 26.1813C37.0209 24.8145 35.8838 23.8846 34.4843 23.9217Z" fill="#54E6AF"/>
</g>
<path fill-rule="evenodd" clip-rule="evenodd" d="M124.097 39.8233C126.417 39.8233 128.315 38.8472 129.792 36.895L130.385 39.4276H134.934V10.9362H129.159V21.5413C128.579 20.7762 127.808 20.1299 126.845 19.6023C125.883 19.0747 124.769 18.8109 123.503 18.8109C122.027 18.8109 120.702 19.1934 119.528 19.9584C118.355 20.7235 117.426 21.8711 116.74 23.4012C116.055 24.9312 115.712 26.7911 115.712 28.9807V29.416C115.712 31.7112 116.081 33.637 116.819 35.1934C117.557 36.7499 118.559 37.9107 119.825 38.6757C121.091 39.4408 122.515 39.8233 124.097 39.8233ZM75.0535 37.0929V46.59H69.2791V19.2066H73.8274L74.4207 21.7392C75.8972 19.787 77.7957 18.8109 80.116 18.8109C81.698 18.8109 83.1219 19.1934 84.3875 19.9584C85.6531 20.7235 86.6551 21.8842 87.3934 23.4407C88.1316 24.9972 88.5008 26.923 88.5008 29.2182V29.6534C88.5008 31.8431 88.158 33.7029 87.4725 35.233C86.7869 36.7631 85.8575 37.9107 84.6841 38.6757C83.5108 39.4408 82.1858 39.8233 80.7093 39.8233C79.4436 39.8233 78.3296 39.5595 77.3672 39.0319C76.4048 38.5042 75.6336 37.8579 75.0535 37.0929ZM76.1214 34.3822C76.8333 35.2132 77.7429 35.6287 78.8504 35.6287C79.9578 35.6287 80.8675 35.2132 81.5794 34.3822C82.2913 33.5512 82.6472 32.3707 82.6472 30.8406V27.5562C82.6472 25.9997 82.2913 24.8125 81.5794 23.9947C80.8675 23.1769 79.9578 22.768 78.8504 22.768C77.7429 22.768 76.8333 23.1769 76.1214 23.9947C75.4094 24.8125 75.0535 25.9997 75.0535 27.5562V30.8406C75.0535 32.3707 75.4094 33.5512 76.1214 34.3822ZM102.423 39.8233C104.295 39.8233 105.982 39.4276 107.485 38.6361C108.988 37.8447 110.168 36.6971 111.025 35.1934C111.882 33.6897 112.31 31.9222 112.31 29.8909V28.7433C112.31 26.712 111.882 24.9444 111.025 23.4407C110.168 21.937 108.988 20.7894 107.485 19.998C105.982 19.2066 104.295 18.8109 102.423 18.8109H101.79C99.9178 18.8109 98.2303 19.2066 96.7274 19.998C95.2244 20.7894 94.0445 21.937 93.1876 23.4407C92.3306 24.9444 91.9022 26.712 91.9022 28.7433V29.8909C91.9022 31.9222 92.3306 33.6897 93.1876 35.1934C94.0445 36.6971 95.2244 37.8447 96.7274 38.6361C98.2303 39.4276 99.9178 39.8233 101.79 39.8233H102.423ZM98.962 34.5999C99.7662 35.4441 100.814 35.8661 102.106 35.8661C103.398 35.8661 104.446 35.4441 105.251 34.5999C106.055 33.7557 106.457 32.529 106.457 30.9197V27.7144C106.457 26.1052 106.055 24.8785 105.251 24.0343C104.446 23.1901 103.398 22.768 102.106 22.768C100.814 22.768 99.7662 23.1901 98.962 24.0343C98.1578 24.8785 97.7557 26.1052 97.7557 27.7144V30.9197C97.7557 32.529 98.1578 33.7557 98.962 34.5999ZM122.633 34.6196C123.345 35.4506 124.255 35.8661 125.362 35.8661C126.47 35.8661 127.379 35.4506 128.091 34.6196C128.803 33.7887 129.159 32.6081 129.159 31.078V27.7936C129.159 26.2371 128.803 25.05 128.091 24.2322C127.379 23.4143 126.47 23.0054 125.362 23.0054C124.255 23.0054 123.345 23.4143 122.633 24.2322C121.921 25.05 121.565 26.2371 121.565 27.7936V31.078C121.565 32.6081 121.921 33.7887 122.633 34.6196Z" fill="white"/>
<defs>
<clipPath id="clip0">
<rect width="56" height="56" fill="white" transform="translate(0.0827637 0.936157)"/>
</clipPath>
</defs>
</svg>
